{
  "accessors": [
    {
      "bufferView": 2,
      "componentType": 5126,
      "count": 728,
      "max": [
        5.478004455566406,
        5.376404762268066,
        3.1740810871124268
      ],
      "min": [
        -2.0673866271972656,
        0.10252606868743896,
        -3.0975656509399414
      ],
      "type": "VEC3"
    },
    {
      "bufferView": 2,
      "byteOffset": 8736,
      "componentType": 5126,
      "count": 728,
      "max": [
        1.0,
        1.0,
        1.0
      ],
      "min": [
        -1.0,
        -1.0,
        -1.0
      ],
      "type": "VEC3"
    },
    {
      "bufferView": 1,
      "componentType": 5126,
      "count": 728,
      "max": [
        1.0,
        1.0000009536743164
      ],
      "min": [
        -1.1920928955078125e-07,
        -9.5367431640625e-07
      ],
      "type": "VEC2"
    },
    {
      "bufferView": 0,
      "componentType": 5125,
      "count": 1098,
      "type": "SCALAR"
    },
    {
      "bufferView": 2,
      "byteOffset": 17472,
      "componentType": 5126,
      "count": 19252,
      "max": [
        5.553689956665039,
        5.4819254875183105,
        3.2125959396362305
      ],
      "min": [
        -2.329028367996216,
        2.53254771232605,
        -3.2137691974639893
      ],
      "type": "VEC3"
    },
    {
      "bufferView": 2,
      "byteOffset": 248496,
      "componentType": 5126,
      "count": 19252,
      "max": [
        0.999842643737793,
        0.9993788003921509,
        1.0
      ],
      "min": [
        -0.999842643737793,
        -0.9984287023544312,
        -1.0
      ],
      "type": "VEC3"
    },
    {
      "bufferView": 1,
      "byteOffset": 5824,
      "componentType": 5126,
      "count": 19252,
      "max": [
        1.389981985092163,
        1.0243785381317139
      ],
      "min": [
        -0.38998210430145264,
        -2.9802322387695313e-08
      ],
      "type": "VEC2"
    },
    {
      "bufferView": 1,
      "byteOffset": 159840,
      "componentType": 5126,
      "count": 19252,
      "max": [
        1.389981985092163,
        1.0243785381317139
      ],
      "min": [
        -0.38998210430145264,
        -2.9802322387695313e-08
      ],
      "type": "VEC2"
    },
    {
      "bufferView": 0,
      "byteOffset": 4392,
      "componentType": 5125,
      "count": 115056,
      "type": "SCALAR"
    },
    {
      "bufferView": 2,
      "byteOffset": 479520,
      "componentType": 5126,
      "count": 234,
      "max": [
        4.401408672332764,
        1.9055925607681274,
        -0.9474301934242249
      ],
      "min": [
        4.352860450744629,
        0.18017098307609558,
        -2.154655933380127
      ],
      "type": "VEC3"
    },
    {
      "bufferView": 2,
      "byteOffset": 482328,
      "componentType": 5126,
      "count": 234,
      "max": [
        1.0,
        1.0,
        1.0
      ],
      "min": [
        -1.0,
        -1.0,
        -1.0
      ],
      "type": "VEC3"
    },
    {
      "bufferView": 1,
      "byteOffset": 313856,
      "componentType": 5126,
      "count": 234,
      "max": [
        0.875,
        1.0
      ],
      "min": [
        0.125,
        0.0
      ],
      "type": "VEC2"
    },
    {
      "bufferView": 0,
      "byteOffset": 464616,
      "componentType": 5125,
      "count": 360,
      "type": "SCALAR"
    },
    {
      "bufferView": 2,
      "byteOffset": 485136,
      "componentType": 5126,
      "count": 126,
      "max": [
        4.303933143615723,
        5.312117099761963,
        3.0540266036987305
      ],
      "min": [
        -1.8252774477005005,
        0.10474038124084473,
        -3.0540266036987305
      ],
      "type": "VEC3"
    },
    {
      "bufferView": 2,
      "byteOffset": 486648,
      "componentType": 5126,
      "count": 126,
      "max": [
        1.0,
        1.0,
        1.0
      ],
      "min": [
        -1.0,
        -1.0,
        -1.0
      ],
      "type": "VEC3"
    },
    {
      "bufferView": 1,
      "byteOffset": 315728,
      "componentType": 5126,
      "count": 126,
      "max": [
        1.0,
        1.6313462257385254
      ],
      "min": [
        -0.0066261887550354,
        -0.6396137475967407
      ],
      "type": "VEC2"
    },
    {
      "bufferView": 0,
      "byteOffset": 466056,
      "componentType": 5125,
      "count": 204,
      "type": "SCALAR"
    },
    {
      "bufferView": 2,
      "byteOffset": 488160,
      "componentType": 5126,
      "count": 24,
      "max": [
        4.327104091644287,
        2.1890320777893066,
        -1.0414268970489502
      ],
      "min": [
        4.184711933135986,
        0.10434603691101074,
        -2.087693452835083
      ],
      "type": "VEC3"
    },
    {
      "bufferView": 2,
      "byteOffset": 488448,
      "componentType": 5126,
      "count": 24,
      "max": [
        1.0,
        1.0,
        1.0
      ],
      "min": [
        -1.0,
        -1.0,
        -1.0
      ],
      "type": "VEC3"
    },
    {
      "bufferView": 1,
      "byteOffset": 316736,
      "componentType": 5126,
      "count": 24,
      "max": [
        0.875,
        1.0
      ],
      "min": [
        0.125,
        0.0
      ],
      "type": "VEC2"
    },
    {
      "bufferView": 0,
      "byteOffset": 466872,
      "componentType": 5125,
      "count": 36,
      "type": "SCALAR"
    },
    {
      "bufferView": 2,
      "byteOffset": 488736,
      "componentType": 5126,
      "count": 24,
      "max": [
        4.379033088684082,
        1.996989130973816,
        -1.1040679216384888
      ],
      "min": [
        4.236640930175781,
        0.1770954132080078,
        -2.025052070617676
      ],
      "type": "VEC3"
    },
    {
      "bufferView": 2,
      "byteOffset": 489024,
      "componentType": 5126,
      "count": 24,
      "max": [
        1.0,
        1.0,
        1.0
      ],
      "min": [
        -1.0,
        -1.0,
        -1.0
      ],
      "type": "VEC3"
    },
    {
      "bufferView": 1,
      "byteOffset": 316928,
      "componentType": 5126,
      "count": 24,
      "max": [
        0.6521274447441101,
        1.0
      ],
      "min": [
        0.006439819931983948,
        0.0
      ],
      "type": "VEC2"
    },
    {
      "bufferView": 0,
      "byteOffset": 467016,
      "componentType": 5125,
      "count": 36,
      "type": "SCALAR"
    },
    {
      "bufferView": 2,
      "byteOffset": 489312,
      "componentType": 5126,
      "count": 24,
      "max": [
        0.5,
        0.5,
        0.5
      ],
      "min": [
        -0.5,
        -0.5,
        -0.5
      ],
      "type": "VEC3"
    },
    {
      "bufferView": 2,
      "byteOffset": 489600,
      "componentType": 5126,
      "count": 24,
      "max": [
        1.0,
        1.0,
        1.0
      ],
      "min": [
        -1.0,
        -1.0,
        -1.0
      ],
      "type": "VEC3"
    },
    {
      "bufferView": 1,
      "byteOffset": 317120,
      "componentType": 5126,
      "count": 24,
      "max": [
        0.875,
        1.0
      ],
      "min": [
        0.125,
        0.0
      ],
      "type": "VEC2"
    },
    {
      "bufferView": 0,
      "byteOffset": 467160,
      "componentType": 5125,
      "count": 36,
      "type": "SCALAR"
    },
    {
      "bufferView": 2,
      "byteOffset": 489888,
      "componentType": 5126,
      "count": 31744,
      "max": [
        4.985366344451904,
        1.6761634349822998,
        5.0454816818237305
      ],
      "min": [
        -2.9815385341644287,
        0.12278139591217041,
        -5.0454816818237305
      ],
      "type": "VEC3"
    },
    {
      "bufferView": 2,
      "byteOffset": 870816,
      "componentType": 5126,
      "count": 31744,
      "max": [
        0.9983881711959839,
        0.1557702124118805,
        0.999635636806488
      ],
      "min": [
        -0.9975458383560181,
        -0.13205762207508087,
        -0.9996356964111328
      ],
      "type": "VEC3"
    },
    {
      "bufferView": 1,
      "byteOffset": 317312,
      "componentType": 5126,
      "count": 31744,
      "max": [
        1.0,
        1.0
      ],
      "min": [
        0.0,
        0.0
      ],
      "type": "VEC2"
    },
    {
      "bufferView": 0,
      "byteOffset": 467304,
      "componentType": 5125,
      "count": 47616,
      "type": "SCALAR"
    },
    {
      "bufferView": 2,
      "byteOffset": 1251744,
      "componentType": 5126,
      "count": 15872,
      "max": [
        4.985366344451904,
        1.6761634349822998,
        5.0454816818237305
      ],
      "min": [
        -2.9815385341644287,
        0.12278139591217041,
        3.048743963241577
      ],
      "type": "VEC3"
    },
    {
      "bufferView": 2,
      "byteOffset": 1442208,
      "componentType": 5126,
      "count": 15872,
      "max": [
        0.9983881711959839,
        0.1557702124118805,
        0.9990529417991638
      ],
      "min": [
        -0.9975458383560181,
        -0.13205762207508087,
        -0.9996356964111328
      ],
      "type": "VEC3"
    },
    {
      "bufferView": 1,
      "byteOffset": 571264,
      "componentType": 5126,
      "count": 15872,
      "max": [
        1.0,
        1.0
      ],
      "min": [
        0.0,
        0.0
      ],
      "type": "VEC2"
    },
    {
      "bufferView": 0,
      "byteOffset": 657768,
      "componentType": 5125,
      "count": 23808,
      "type": "SCALAR"
    },
    {
      "bufferView": 2,
      "byteOffset": 1632672,
      "componentType": 5126,
      "count": 15872,
      "max": [
        4.985366344451904,
        1.6761634349822998,
        5.0454816818237305
      ],
      "min": [
        -2.9815385341644287,
        0.12278139591217041,
        3.048743963241577
      ],
      "type": "VEC3"
    },
    {
      "bufferView": 2,
      "byteOffset": 1823136,
      "componentType": 5126,
      "count": 15872,
      "max": [
        0.9983881711959839,
        0.1557702124118805,
        0.9990529417991638
      ],
      "min": [
        -0.9975458383560181,
        -0.13205762207508087,
        -0.9996356964111328
      ],
      "type": "VEC3"
    },
    {
      "bufferView": 1,
      "byteOffset": 698240,
      "componentType": 5126,
      "count": 15872,
      "max": [
        1.0,
        1.0
      ],
      "min": [
        0.0,
        0.0
      ],
      "type": "VEC2"
    },
    {
      "bufferView": 0,
      "byteOffset": 753000,
      "componentType": 5125,
      "count": 23808,
      "type": "SCALAR"
    },
    {
      "bufferView": 2,
      "byteOffset": 2013600,
      "componentType": 5126,
      "count": 65532,
      "max": [
        22.3709716796875,
        23.283496856689453,
        -49.36395263671875
      ],
      "min": [
        -181.70196533203125,
        -18.695415496826172,
        -651.0399169921875
      ],
      "type": "VEC3"
    },
    {
      "bufferView": 2,
      "byteOffset": 2799984,
      "componentType": 5126,
      "count": 65532,
      "max": [
        0.9988189935684204,
        0.9997125267982483,
        0.9962479472160339
      ],
      "min": [
        -0.9975395798683167,
        -0.6470191478729248,
        -0.9995387196540833
      ],
      "type": "VEC3"
    },
    {
      "bufferView": 1,
      "byteOffset": 825216,
      "componentType": 5126,
      "count": 65532,
      "max": [
        1.0,
        1.0
      ],
      "min": [
        0.0,
        0.0
      ],
      "type": "VEC2"
    },
    {
      "bufferView": 0,
      "byteOffset": 848232,
      "componentType": 5125,
      "count": 172974,
      "type": "SCALAR"
    },
    {
      "bufferView": 2,
      "byteOffset": 3586368,
      "componentType": 5126,
      "count": 65532,
      "max": [
        68.94784545898438,
        23.283496856689453,
        -23.754638671875
      ],
      "min": [
        -138.00314331054688,
        -18.695415496826172,
        -166.09298706054688
      ],
      "type": "VEC3"
    },
    {
      "bufferView": 2,
      "byteOffset": 4372752,
      "componentType": 5126,
      "count": 65532,
      "max": [
        0.9986028671264648,
        0.9997125267982483,
        0.9999274611473083
      ],
      "min": [
        -0.9975394606590271,
        -0.6470255255699158,
        -0.9971925020217896
      ],
      "type": "VEC3"
    },
    {
      "bufferView": 1,
      "byteOffset": 1349472,
      "componentType": 5126,
      "count": 65532,
      "max": [
        1.0,
        1.0
      ],
      "min": [
        0.0,
        0.0
      ],
      "type": "VEC2"
    },
    {
      "bufferView": 0,
      "byteOffset": 1540128,
      "componentType": 5125,
      "count": 173010,
      "type": "SCALAR"
    },
    {
      "bufferView": 2,
      "byteOffset": 5159136,
      "componentType": 5126,
      "count": 62140,
      "max": [
        37.69630432128906,
        23.283496856689453,
        -76.45606994628906
      ],
      "min": [
        -181.72235107421875,
        -18.695415496826172,
        -609.4719848632813
      ],
      "type": "VEC3"
    },
    {
      "bufferView": 2,
      "byteOffset": 5904816,
      "componentType": 5126,
      "count": 62140,
      "max": [
        0.9986028671264648,
        0.9997125267982483,
        0.9995387196540833
      ],
      "min": [
        -0.9974164962768555,
        -0.6470255255699158,
        -0.9999274611473083
      ],
      "type": "VEC3"
    },
    {
      "bufferView": 1,
      "byteOffset": 1873728,
      "componentType": 5126,
      "count": 62140,
      "max": [
        1.0,
        1.0
      ],
      "min": [
        0.0,
        0.0
      ],
      "type": "VEC2"
    },
    {
      "bufferView": 0,
      "byteOffset": 2232168,
      "componentType": 5125,
      "count": 164064,
      "type": "SCALAR"
    },
    {
      "bufferView": 2,
      "byteOffset": 6650496,
      "componentType": 5126,
      "count": 65532,
      "max": [
        68.94786071777344,
        23.283493041992188,
        -23.754638671875
      ],
      "min": [
        -131.35752868652344,
        -18.695415496826172,
        -166.0929718017578
      ],
      "type": "VEC3"
    },
    {
      "bufferView": 2,
      "byteOffset": 7436880,
      "componentType": 5126,
      "count": 65532,
      "max": [
        0.9986029267311096,
        0.9997124671936035,
        0.9999274611473083
      ],
      "min": [
        -0.9975395202636719,
        -0.647025465965271,
        -0.9971925020217896
      ],
      "type": "VEC3"
    },
    {
      "bufferView": 1,
      "byteOffset": 2370848,
      "componentType": 5126,
      "count": 65532,
      "max": [
        1.0,
        1.0
      ],
      "min": [
        0.0,
        0.0
      ],
      "type": "VEC2"
    },
    {
      "bufferView": 0,
      "byteOffset": 2888424,
      "componentType": 5125,
      "count": 173016,
      "type": "SCALAR"
    },
    {
      "bufferView": 2,
      "byteOffset": 8223264,
      "componentType": 5126,
      "count": 31068,
      "max": [
        4.185523986816406,
        23.283493041992188,
        -27.78387451171875
      ],
      "min": [
        -138.00314331054688,
        -18.695415496826172,
        -143.26710510253906
      ],
      "type": "VEC3"
    },
    {
      "bufferView": 2,
      "byteOffset": 8596080,
      "componentType": 5126,
      "count": 31068,
      "max": [
        0.9988189935684204,
        0.9997124671936035,
        0.9964331388473511
      ],
      "min": [
        -0.997515857219696,
        -0.6470238566398621,
        -0.9962480068206787
      ],
      "type": "VEC3"
    },
    {
      "bufferView": 1,
      "byteOffset": 2895104,
      "componentType": 5126,
      "count": 31068,
      "max": [
        1.0,
        1.0
      ],
      "min": [
        0.0,
        0.0
      ],
      "type": "VEC2"
    },
    {
      "bufferView": 0,
      "byteOffset": 3580488,
      "componentType": 5125,
      "count": 82008,
      "type": "SCALAR"
    },
    {
      "bufferView": 2,
      "byteOffset": 8968896,
      "componentType": 5126,
      "count": 65532,
      "max": [
        68.94786071777344,
        23.283493041992188,
        -23.754638671875
      ],
      "min": [
        -131.35752868652344,
        -18.695415496826172,
        -166.0929718017578
      ],
      "type": "VEC3"
    },
    {
      "bufferView": 2,
      "byteOffset": 9755280,
      "componentType": 5126,
      "count": 65532,
      "max": [
        0.9986029267311096,
        0.9997124671936035,
        0.9999274611473083
      ],
      "min": [
        -0.9975395202636719,
        -0.647025465965271,
        -0.9971925020217896
      ],
      "type": "VEC3"
    },
    {
      "bufferView": 1,
      "byteOffset": 3143648,
      "componentType": 5126,
      "count": 65532,
      "max": [
        1.0,
        1.0
      ],
      "min": [
        0.0,
        0.0
      ],
      "type": "VEC2"
    },
    {
      "bufferView": 0,
      "byteOffset": 3908520,
      "componentType": 5125,
      "count": 173016,
      "type": "SCALAR"
    },
    {
      "bufferView": 2,
      "byteOffset": 10541664,
      "componentType": 5126,
      "count": 31068,
      "max": [
        4.185523986816406,
        23.283493041992188,
        -27.78387451171875
      ],
      "min": [
        -138.00314331054688,
        -18.695415496826172,
        -143.26710510253906
      ],
      "type": "VEC3"
    },
    {
      "bufferView": 2,
      "byteOffset": 10914480,
      "componentType": 5126,
      "count": 31068,
      "max": [
        0.9988189935684204,
        0.9997124671936035,
        0.9964331388473511
      ],
      "min": [
        -0.997515857219696,
        -0.6470238566398621,
        -0.9962480068206787
      ],
      "type": "VEC3"
    },
    {
      "bufferView": 1,
      "byteOffset": 3667904,
      "componentType": 5126,
      "count": 31068,
      "max": [
        1.0,
        1.0
      ],
      "min": [
        0.0,
        0.0
      ],
      "type": "VEC2"
    },
    {
      "bufferView": 0,
      "byteOffset": 4600584,
      "componentType": 5125,
      "count": 82008,
      "type": "SCALAR"
    },
    {
      "bufferView": 2,
      "byteOffset": 11287296,
      "componentType": 5126,
      "count": 254,
      "max": [
        0.5,
        0.5,
        0.4999980926513672
      ],
      "min": [
        -0.5,
        -0.5,
        -0.5
      ],
      "type": "VEC3"
    },
    {
      "bufferView": 2,
      "byteOffset": 11290344,
      "componentType": 5126,
      "count": 254,
      "max": [
        1.0,
        1.0,
        1.0
      ],
      "min": [
        -1.0,
        -1.0,
        -1.0
      ],
      "type": "VEC3"
    },
    {
      "bufferView": 1,
      "byteOffset": 3916448,
      "componentType": 5126,
      "count": 254,
      "max": [
        1.0,
        0.9999997615814209
      ],
      "min": [
        0.0,
        -5.960464477539063e-08
      ],
      "type": "VEC2"
    },
    {
      "bufferView": 0,
      "byteOffset": 4928616,
      "componentType": 5125,
      "count": 1296,
      "type": "SCALAR"
    },
    {
      "bufferView": 2,
      "byteOffset": 11293392,
      "componentType": 5126,
      "count": 84,
      "max": [
        1.0,
        1.0,
        1.0000001192092896
      ],
      "min": [
        -1.000000238418579,
        -1.0,
        -1.0000004768371582
      ],
      "type": "VEC3"
    },
    {
      "bufferView": 2,
      "byteOffset": 11294400,
      "componentType": 5126,
      "count": 84,
      "max": [
        1.0,
        1.0,
        1.0
      ],
      "min": [
        -1.0,
        -1.0,
        -1.0
      ],
      "type": "VEC3"
    },
    {
      "bufferView": 1,
      "byteOffset": 3918480,
      "componentType": 5126,
      "count": 84,
      "max": [
        0.65625,
        1.0
      ],
      "min": [
        0.3437499701976776,
        -7.450580596923828e-08
      ],
      "type": "VEC2"
    },
    {
      "bufferView": 0,
      "byteOffset": 4933800,
      "componentType": 5125,
      "count": 240,
      "type": "SCALAR"
    },
    {
      "bufferView": 2,
      "byteOffset": 11295408,
      "componentType": 5126,
      "count": 84,
      "max": [
        1.0,
        1.0,
        1.0000001192092896
      ],
      "min": [
        -1.000000238418579,
        -1.0,
        -1.0000004768371582
      ],
      "type": "VEC3"
    },
    {
      "bufferView": 2,
      "byteOffset": 11296416,
      "componentType": 5126,
      "count": 84,
      "max": [
        1.0,
        1.0,
        1.0
      ],
      "min": [
        -1.0,
        -1.0,
        -1.0
      ],
      "type": "VEC3"
    },
    {
      "bufferView": 1,
      "byteOffset": 3919152,
      "componentType": 5126,
      "count": 84,
      "max": [
        0.65625,
        1.0
      ],
      "min": [
        0.3437499701976776,
        -7.450580596923828e-08
      ],
      "type": "VEC2"
    },
    {
      "bufferView": 0,
      "byteOffset": 4934760,
      "componentType": 5125,
      "count": 240,
      "type": "SCALAR"
    }
  ],
  "asset": {
    "extras": {
      "author": "JalenJacobson (https://sketchfab.com/JalenJacobson)",
      "license": "CC-BY-4.0 (http://creativecommons.org/licenses/by/4.0/)",
      "source": "https://sketchfab.com/3d-models/old-abandoned-shed-98a6463db3d449eb97c8ac03230d3b54",
      "title": "Old Abandoned Shed"
    },
    "generator": "Sketchfab-14.35.0",
    "version": "2.0"
  },
  "bufferViews": [
    {
      "buffer": 0,
      "byteLength": 4935720,
      "name": "floatBufferViews",
      "target": 34963
    },
    {
      "buffer": 0,
      "byteLength": 3919824,
      "byteOffset": 4935720,
      "byteStride": 8,
      "name": "floatBufferViews",
      "target": 34962
    },
    {
      "buffer": 0,
      "byteLength": 11297424,
      "byteOffset": 8855544,
      "byteStride": 12,
      "name": "floatBufferViews",
      "target": 34962
    }
  ],
  "buffers": [
    {
      "byteLength": 20152968,
      "uri": "scene.bin"
    }
  ],
  "images": [
    {
      "uri": "textures/phong5_baseColor.jpeg"
    },
    {
      "uri": "textures/phong3_baseColor.png"
    },
    {
      "uri": "textures/phong7_baseColor.png"
    },
    {
      "uri": "textures/phong4_baseColor.jpeg"
    },
    {
      "uri": "textures/phong6_baseColor.jpeg"
    }
  ],
  "materials": [
    {
      "doubleSided": true,
      "name": "phong5",
      "pbrMetallicRoughness": {
        "baseColorTexture": {
          "index": 0
        },
        "metallicFactor": 0.0,
        "roughnessFactor": 0.581557228714118
      }
    },
    {
      "doubleSided": true,
      "name": "phong3",
      "pbrMetallicRoughness": {
        "baseColorTexture": {
          "index": 1
        },
        "roughnessFactor": 0.64847005346943
      }
    },
    {
      "doubleSided": true,
      "name": "phong7",
      "pbrMetallicRoughness": {
        "baseColorTexture": {
          "index": 2
        },
        "metallicFactor": 0.8138367357490891,
        "roughnessFactor": 0.757963766705395
      }
    },
    {
      "doubleSided": true,
      "name": "phong4",
      "pbrMetallicRoughness": {
        "baseColorTexture": {
          "index": 3
        },
        "metallicFactor": 0.38802785094255837,
        "roughnessFactor": 0.6423870694007652
      }
    },
    {
      "doubleSided": true,
      "name": "phong2",
      "pbrMetallicRoughness": {
        "baseColorFactor": [
          0.0,
          0.0,
          0.0,
          1.0
        ]
      }
    },
    {
      "doubleSided": true,
      "name": "phong6",
      "pbrMetallicRoughness": {
        "baseColorTexture": {
          "index": 4
        },
        "roughnessFactor": 0.5146444039588061
      }
    },
    {
      "doubleSided": true,
      "name": "phong26",
      "pbrMetallicRoughness": {
        "baseColorFactor": [
          0.504,
          0.437508,
          0.158256,
          1.0
        ],
        "metallicFactor": 0.0
      }
    },
    {
      "doubleSided": true,
      "name": "phong27",
      "pbrMetallicRoughness": {
        "baseColorFactor": [
          0.13124700000000003,
          0.23799999999999996,
          0.039746000000000004,
          1.0
        ],
        "metallicFactor": 0.0
      }
    },
    {
      "doubleSided": true,
      "name": "phong28",
      "pbrMetallicRoughness": {
        "baseColorTexture": {
          "index": 2
        },
        "roughnessFactor": 0.2530760890062229
      }
    },
    {
      "doubleSided": true,
      "name": "phong29",
      "pbrMetallicRoughness": {
        "baseColorFactor": [
          0.214286,
          0.214286,
          0.214286,
          1.0
        ],
        "roughnessFactor": 0.5998061809201122
      }
    }
  ],
  "meshes": [
    {
      "name": "pCube69_phong5_0",
      "primitives": [
        {
          "attributes": {
            "NORMAL": 1,
            "POSITION": 0,
            "TEXCOORD_0": 2
          },
          "indices": 3,
          "material": 0,
          "mode": 4
        }
      ]
    },
    {
      "name": "pCube69_phong3_0",
      "primitives": [
        {
          "attributes": {
            "NORMAL": 5,
            "POSITION": 4,
            "TEXCOORD_0": 6,
            "TEXCOORD_1": 7
          },
          "indices": 8,
          "material": 1,
          "mode": 4
        }
      ]
    },
    {
      "name": "pCube69_phong7_0",
      "primitives": [
        {
          "attributes": {
            "NORMAL": 10,
            "POSITION": 9,
            "TEXCOORD_0": 11
          },
          "indices": 12,
          "material": 2,
          "mode": 4
        }
      ]
    },
    {
      "name": "pCube69_phong4_0",
      "primitives": [
        {
          "attributes": {
            "NORMAL": 14,
            "POSITION": 13,
            "TEXCOORD_0": 15
          },
          "indices": 16,
          "material": 3,
          "mode": 4
        }
      ]
    },
    {
      "name": "pCube69_phong2_0",
      "primitives": [
        {
          "attributes": {
            "NORMAL": 18,
            "POSITION": 17,
            "TEXCOORD_0": 19
          },
          "indices": 20,
          "material": 4,
          "mode": 4
        }
      ]
    },
    {
      "name": "pCube69_phong6_0",
      "primitives": [
        {
          "attributes": {
            "NORMAL": 22,
            "POSITION": 21,
            "TEXCOORD_0": 23
          },
          "indices": 24,
          "material": 5,
          "mode": 4
        }
      ]
    },
    {
      "name": "pCube70_phong2_0",
      "primitives": [
        {
          "attributes": {
            "NORMAL": 26,
            "POSITION": 25,
            "TEXCOORD_0": 27
          },
          "indices": 28,
          "material": 4,
          "mode": 4
        }
      ]
    },
    {
      "name": "pCube165_phong26_0",
      "primitives": [
        {
          "attributes": {
            "NORMAL": 30,
            "POSITION": 29,
            "TEXCOORD_0": 31
          },
          "indices": 32,
          "material": 6,
          "mode": 4
        }
      ]
    },
    {
      "name": "pCube166_phong26_0",
      "primitives": [
        {
          "attributes": {
            "NORMAL": 34,
            "POSITION": 33,
            "TEXCOORD_0": 35
          },
          "indices": 36,
          "material": 6,
          "mode": 4
        }
      ]
    },
    {
      "name": "pCube167_phong26_0",
      "primitives": [
        {
          "attributes": {
            "NORMAL": 38,
            "POSITION": 37,
            "TEXCOORD_0": 39
          },
          "indices": 40,
          "material": 6,
          "mode": 4
        }
      ]
    },
    {
      "name": "pPlane62_phong27_0",
      "primitives": [
        {
          "attributes": {
            "NORMAL": 42,
            "POSITION": 41,
            "TEXCOORD_0": 43
          },
          "indices": 44,
          "material": 7,
          "mode": 4
        }
      ]
    },
    {
      "name": "pPlane62_phong27_0",
      "primitives": [
        {
          "attributes": {
            "NORMAL": 46,
            "POSITION": 45,
            "TEXCOORD_0": 47
          },
          "indices": 48,
          "material": 7,
          "mode": 4
        }
      ]
    },
    {
      "name": "pPlane62_phong27_0",
      "primitives": [
        {
          "attributes": {
            "NORMAL": 50,
            "POSITION": 49,
            "TEXCOORD_0": 51
          },
          "indices": 52,
          "material": 7,
          "mode": 4
        }
      ]
    },
    {
      "name": "pPlane63_phong27_0",
      "primitives": [
        {
          "attributes": {
            "NORMAL": 54,
            "POSITION": 53,
            "TEXCOORD_0": 55
          },
          "indices": 56,
          "material": 7,
          "mode": 4
        }
      ]
    },
    {
      "name": "pPlane63_phong27_0",
      "primitives": [
        {
          "attributes": {
            "NORMAL": 58,
            "POSITION": 57,
            "TEXCOORD_0": 59
          },
          "indices": 60,
          "material": 7,
          "mode": 4
        }
      ]
    },
    {
      "name": "pPlane64_phong27_0",
      "primitives": [
        {
          "attributes": {
            "NORMAL": 62,
            "POSITION": 61,
            "TEXCOORD_0": 63
          },
          "indices": 64,
          "material": 7,
          "mode": 4
        }
      ]
    },
    {
      "name": "pPlane64_phong27_0",
      "primitives": [
        {
          "attributes": {
            "NORMAL": 66,
            "POSITION": 65,
            "TEXCOORD_0": 67
          },
          "indices": 68,
          "material": 7,
          "mode": 4
        }
      ]
    },
    {
      "name": "pCube168_phong28_0",
      "primitives": [
        {
          "attributes": {
            "NORMAL": 70,
            "POSITION": 69,
            "TEXCOORD_0": 71
          },
          "indices": 72,
          "material": 8,
          "mode": 4
        }
      ]
    },
    {
      "name": "pCylinder1_phong29_0",
      "primitives": [
        {
          "attributes": {
            "NORMAL": 74,
            "POSITION": 73,
            "TEXCOORD_0": 75
          },
          "indices": 76,
          "material": 9,
          "mode": 4
        }
      ]
    },
    {
      "name": "pCylinder2_phong29_0",
      "primitives": [
        {
          "attributes": {
            "NORMAL": 78,
            "POSITION": 77,
            "TEXCOORD_0": 79
          },
          "indices": 80,
          "material": 9,
          "mode": 4
        }
      ]
    }
  ],
  "nodes": [
    {
      "children": [
        1
      ],
      "matrix": [
        1.0,
        0.0,
        0.0,
        0.0,
        0.0,
        2.220446049250313e-16,
        -1.0,
        0.0,
        0.0,
        1.0,
        2.220446049250313e-16,
        0.0,
        0.0,
        0.0,
        0.0,
        1.0
      ],
      "name": "Sketchfab_model"
    },
    {
      "children": [
        2
      ],
      "matrix": [
        0.009999999776482582,
        0.0,
        0.0,
        0.0,
        0.0,
        0.0,
        0.009999999776482582,
        0.0,
        0.0,
        -0.009999999776482582,
        0.0,
        0.0,
        0.0,
        0.0,
        0.0,
        1.0
      ],
      "name": "6c37268aab95463fad6027a1da5cfef9.fbx"
    },
    {
      "children": [
        3,
        10,
        12,
        14,
        16,
        18,
        22,
        25,
        28,
        30,
        32
      ],
      "name": "RootNode"
    },
    {
      "children": [
        4,
        5,
        6,
        7,
        8,
        9
      ],
      "name": "pCube69"
    },
    {
      "mesh": 0,
      "name": "pCube69_phong5_0"
    },
    {
      "mesh": 1,
      "name": "pCube69_phong3_0"
    },
    {
      "mesh": 2,
      "name": "pCube69_phong7_0"
    },
    {
      "mesh": 3,
      "name": "pCube69_phong4_0"
    },
    {
      "mesh": 4,
      "name": "pCube69_phong2_0"
    },
    {
      "mesh": 5,
      "name": "pCube69_phong6_0"
    },
    {
      "children": [
        11
      ],
      "matrix": [
        5.955660820007324,
        0.0,
        0.0,
        0.0,
        0.0,
        0.1403300166130066,
        0.0,
        0.0,
        0.0,
        0.0,
        5.716386795043945,
        0.0,
        1.2791579961776733,
        0.2618332803249359,
        0.0,
        1.0
      ],
      "name": "pCube70"
    },
    {
      "mesh": 6,
      "name": "pCube70_phong2_0"
    },
    {
      "children": [
        13
      ],
      "name": "pCube165"
    },
    {
      "mesh": 7,
      "name": "pCube165_phong26_0"
    },
    {
      "children": [
        15
      ],
      "matrix": [
        2.220446049250313e-16,
        0.0,
        -1.0,
        0.0,
        0.0,
        1.0,
        0.0,
        0.0,
        1.0,
        0.0,
        2.220446049250313e-16,
        0.0,
        1.143708348274231,
        0.0,
        0.9198493361473083,
        1.0
      ],
      "name": "pCube166"
    },
    {
      "mesh": 8,
      "name": "pCube166_phong26_0"
    },
    {
      "children": [
        17
      ],
      "matrix": [
        2.220446049250313e-16,
        0.0,
        -1.0,
        0.0,
        0.0,
        1.0,
        0.0,
        0.0,
        1.0,
        0.0,
        2.220446049250313e-16,
        0.0,
        -6.86316442489624,
        0.0,
        0.9198493361473083,
        1.0
      ],
      "name": "pCube167"
    },
    {
      "mesh": 9,
      "name": "pCube167_phong26_0"
    },
    {
      "children": [
        19,
        20,
        21
      ],
      "matrix": [
        0.03820173929762183,
        0.0,
        0.007596243354005588,
        0.0,
        0.0,
        0.03894965723156929,
        0.0,
        0.0,
        -0.0033027053569021627,
        0.0,
        0.016609405878855243,
        0.0,
        2.0854263305664063,
        0.653428852558136,
        5.992424488067627,
        1.0
      ],
      "name": "pPlane62"
    },
    {
      "mesh": 10,
      "name": "pPlane62_phong27_0"
    },
    {
      "mesh": 11,
      "name": "pPlane62_phong27_0"
    },
    {
      "mesh": 12,
      "name": "pPlane62_phong27_0"
    },
    {
      "children": [
        23,
        24
      ],
      "matrix": [
        0.003081709853083586,
        0.0,
        -0.03882755288243318,
        0.0,
        0.0,
        0.03894965723156929,
        0.0,
        0.0,
        0.016881497988422627,
        0.0,
        0.0013398701392090566,
        0.0,
        6.541028022766113,
        0.653428852558136,
        -1.2934796810150146,
        1.0
      ],
      "name": "pPlane63"
    },
    {
      "mesh": 13,
      "name": "pPlane63_phong27_0"
    },
    {
      "mesh": 14,
      "name": "pPlane63_phong27_0"
    },
    {
      "children": [
        26,
        27
      ],
      "matrix": [
        0.003081709853083586,
        0.0,
        -0.03882755288243318,
        0.0,
        0.0,
        0.03894965723156929,
        0.0,
        0.0,
        0.016881497988422627,
        0.0,
        0.0013398701392090566,
        0.0,
        -1.0845587253570557,
        0.653428852558136,
        -1.2934796810150146,
        1.0
      ],
      "name": "pPlane64"
    },
    {
      "mesh": 15,
      "name": "pPlane64_phong27_0"
    },
    {
      "mesh": 16,
      "name": "pPlane64_phong27_0"
    },
    {
      "children": [
        29
      ],
      "matrix": [
        0.573480486869812,
        0.0,
        0.0,
        0.0,
        0.0,
        0.8813129663467407,
        0.0,
        0.0,
        0.0,
        0.0,
        0.2201363444328308,
        0.0,
        -0.9403386116027832,
        1.6148475408554077,
        -3.164053440093994,
        1.0
      ],
      "name": "pCube168"
    },
    {
      "mesh": 17,
      "name": "pCube168_phong28_0"
    },
    {
      "children": [
        31
      ],
      "matrix": [
        0.04413006454706192,
        0.0,
        0.0,
        0.0,
        0.0,
        0.5419807434082031,
        0.0,
        0.0,
        0.0,
        0.0,
        0.04413006454706192,
        0.0,
        -1.0829302072525024,
        0.6517929434776306,
        -3.086679697036743,
        1.0
      ],
      "name": "pCylinder1"
    },
    {
      "mesh": 18,
      "name": "pCylinder1_phong29_0"
    },
    {
      "children": [
        33
      ],
      "matrix": [
        0.09256758540868759,
        0.0,
        0.0,
        0.0,
        0.0,
        0.03651093691587448,
        0.0,
        0.0,
        0.0,
        0.0,
        0.09256758540868759,
        0.0,
        -0.7681689262390137,
        2.0752015113830566,
        -3.170506715774536,
        1.0
      ],
      "name": "pCylinder2"
    },
    {
      "mesh": 19,
      "name": "pCylinder2_phong29_0"
    }
  ],
  "samplers": [
    {
      "magFilter": 9729,
      "minFilter": 9987,
      "wrapS": 10497,
      "wrapT": 10497
    }
  ],
  "scene": 0,
  "scenes": [
    {
      "name": "Sketchfab_Scene",
      "nodes": [
        0
      ]
    }
  ],
  "textures": [
    {
      "sampler": 0,
      "source": 0
    },
    {
      "sampler": 0,
      "source": 1
    },
    {
      "sampler": 0,
      "source": 2
    },
    {
      "sampler": 0,
      "source": 3
    },
    {
      "sampler": 0,
      "source": 4
    }
  ]
}
