{
  "accessors": [
    {
      "bufferView": 2,
      "componentType": 5126,
      "count": 10310,
      "max": [
        0.3984753489494324,
        1.8752307891845703,
        0.30541738867759705
      ],
      "min": [
        -0.3980097472667694,
        0.004465995356440544,
        -0.30830952525138855
      ],
      "type": "VEC3"
    },
    {
      "bufferView": 2,
      "byteOffset": 123720,
      "componentType": 5126,
      "count": 10310,
      "max": [
        0.9998639225959778,
        0.9981387853622437,
        0.9998951554298401
      ],
      "min": [
        -0.9991452693939209,
        -0.9997599124908447,
        -0.9999571442604065
      ],
      "type": "VEC3"
    },
    {
      "bufferView": 3,
      "componentType": 5126,
      "count": 10310,
      "max": [
        0.9995411038398743,
        0.9999392628669739,
        0.9993487000465393,
        1.0
      ],
      "min": [
        -0.9995338916778564,
        -0.9999809265136719,
        -0.9998832941055298,
        -1.0
      ],
      "type": "VEC4"
    },
    {
      "bufferView": 1,
      "componentType": 5126,
      "count": 10310,
      "max": [
        0.9983911514282227,
        0.9940831661224365
      ],
      "min": [
        0.0009746529394760728,
        0.000974658178165555
      ],
      "type": "VEC2"
    },
    {
      "bufferView": 1,
      "byteOffset": 82480,
      "componentType": 5126,
      "count": 10310,
      "max": [
        0.9983911514282227,
        0.9940831661224365
      ],
      "min": [
        0.0009746529394760728,
        0.000974658178165555
      ],
      "type": "VEC2"
    },
    {
      "bufferView": 0,
      "componentType": 5125,
      "count": 30951,
      "type": "SCALAR"
    }
  ],
  "asset": {
    "extras": {
      "author": "David Wigforss (https://sketchfab.com/dwigfor)",
      "license": "CC-BY-NC-4.0 (http://creativecommons.org/licenses/by-nc/4.0/)",
      "source": "https://sketchfab.com/3d-models/scary-dude-with-head-on-hook-c3e637ec11a54c41966acdb8b5352cce",
      "title": "Scary Dude With Head On Hook"
    },
    "generator": "Sketchfab-12.66.0",
    "version": "2.0"
  },
  "bufferViews": [
    {
      "buffer": 0,
      "byteLength": 123804,
      "name": "floatBufferViews",
      "target": 34963
    },
    {
      "buffer": 0,
      "byteLength": 164960,
      "byteOffset": 123804,
      "byteStride": 8,
      "name": "floatBufferViews",
      "target": 34962
    },
    {
      "buffer": 0,
      "byteLength": 247440,
      "byteOffset": 288764,
      "byteStride": 12,
      "name": "floatBufferViews",
      "target": 34962
    },
    {
      "buffer": 0,
      "byteLength": 164960,
      "byteOffset": 536204,
      "byteStride": 16,
      "name": "floatBufferViews",
      "target": 34962
    }
  ],
  "buffers": [
    {
      "byteLength": 701164,
      "uri": "scene.bin"
    }
  ],
  "images": [
    {
      "uri": "textures/MAT_ScaryDudeWithHeadOnHook_baseColor.jpeg"
    },
    {
      "uri": "textures/MAT_ScaryDudeWithHeadOnHook_normal.png"
    }
  ],
  "materials": [
    {
      "doubleSided": true,
      "name": "MAT_ScaryDudeWithHeadOnHook",
      "normalTexture": {
        "index": 1
      },
      "pbrMetallicRoughness": {
        "baseColorTexture": {
          "index": 0
        },
        "metallicFactor": 0.0,
        "roughnessFactor": 0.9577051494623774
      }
    }
  ],
  "meshes": [
    {
      "name": "geo1_MAT_ScaryDudeWithHeadOnHook_0",
      "primitives": [
        {
          "attributes": {
            "NORMAL": 1,
            "POSITION": 0,
            "TANGENT": 2,
            "TEXCOORD_0": 3,
            "TEXCOORD_1": 4
          },
          "indices": 5,
          "material": 0,
          "mode": 4
        }
      ]
    }
  ],
  "nodes": [
    {
      "children": [
        1
      ],
      "matrix": [
        1.0,
        0.0,
        0.0,
        0.0,
        0.0,
        2.220446049250313e-16,
        -1.0,
        0.0,
        0.0,
        1.0,
        2.220446049250313e-16,
        0.0,
        0.0,
        0.0,
        0.0,
        1.0
      ],
      "name": "Sketchfab_model"
    },
    {
      "children": [
        2
      ],
      "matrix": [
        1.0,
        0.0,
        0.0,
        0.0,
        0.0,
        0.0,
        1.0,
        0.0,
        0.0,
        -1.0,
        0.0,
        0.0,
        0.0,
        0.0,
        0.0,
        1.0
      ],
      "name": "mesh.fbx"
    },
    {
      "children": [
        3
      ],
      "name": "RootNode"
    },
    {
      "children": [
        4
      ],
      "name": "geo1"
    },
    {
      "mesh": 0,
      "name": "geo1_MAT_ScaryDudeWithHeadOnHook_0"
    }
  ],
  "samplers": [
    {
      "magFilter": 9729,
      "minFilter": 9987,
      "wrapS": 10497,
      "wrapT": 10497
    }
  ],
  "scene": 0,
  "scenes": [
    {
      "name": "Sketchfab_Scene",
      "nodes": [
        0
      ]
    }
  ],
  "textures": [
    {
      "sampler": 0,
      "source": 0
    },
    {
      "sampler": 0,
      "source": 1
    }
  ]
}
